<svg xmlns="http://www.w3.org/2000/svg" xml:space="preserve" width="2000" height="249" viewBox="0 0 2000 249" data-version="1" data-id="lg_OTD162FT59mCAtROEo"><g id="outer-wrapper" data-padding="20" transform="matrix(1,0,0,1,0,0)"><g id="inner-wrapper" transform="matrix(0.9653379549393414,0,0,0.9653379549393414,10,4.315424610051991)"><rect width="560" height="222.61" x="336.58757630161597" y="-400.1175" fill="none" rx="0" ry="0" transform="translate(400.5 400.18)"></rect><path fill="#3d9970" d="M814.967576301616 172.7475H750.327576301616Q748.1175763016159 172.7475 746.187576301616 171.4975Q743.397576301616 169.47750000000002 742.537576301616 163.41750000000002V163.32750000000004Q742.537576301616 159.37750000000005 760.037576301616 30.96750000000003Q760.237576301616 29.527500000000032 760.807576301616 28.17750000000001Q762.827576301616 23.46750000000003 767.737576301616 23.46750000000003Q769.657576301616 23.46750000000003 771.297576301616 24.327500000000043Q775.337576301616 26.447500000000048 775.337576301616 31.157500000000027Q774.467576301616 39.90750000000003 770.907576301616 67.42750000000001Q759.847576301616 152.16750000000002 759.367576301616 156.8775H814.297576301616Q816.507576301616 156.8775 818.427576301616 157.64749999999998Q823.337576301616 159.66749999999996 823.337576301616 164.8675Q823.337576301616 166.1175 822.947576301616 167.3675Q821.317576301616 171.78750000000002 814.967576301616 172.7475M865.467576301616 91.94749999999999Q868.8375763016161 92.04750000000001 871.817576301616 92.6275Q886.627576301616 95.79750000000001 889.9975763016159 115.70749999999998Q891.827576301616 114.65749999999997 896.057576301616 111.76749999999998Q901.827576301616 107.82749999999999 904.807576301616 107.82749999999999Q906.2475763016159 107.82749999999999 907.5975763016161 108.6875Q910.5775763016161 110.6175 910.5775763016161 113.88749999999999Q910.4875763016161 117.15749999999997 906.3475763016161 121.09749999999997Q900.477576301616 126.48749999999995 891.147576301616 130.23749999999995Q891.0575763016161 145.23749999999995 886.627576301616 155.62749999999994Q879.417576301616 172.55749999999995 862.9675763016161 172.55749999999995Q857.0975763016161 172.55749999999995 851.2275763016161 168.80749999999995Q837.667576301616 159.86749999999995 837.667576301616 136.58749999999998Q837.667576301616 122.53749999999997 842.377576301616 110.9975Q849.787576301616 92.8175 865.4675763016161 91.94749999999999M877.4875763016161 132.7375Q873.7375763016161 132.6375 870.377576301616 131.96750000000003Q857.677576301616 129.27750000000003 854.017576301616 118.4975Q851.517576301616 126.57749999999999 851.517576301616 136.10750000000002Q851.517576301616 140.71750000000003 852.387576301616 145.0475Q855.0775763016161 158.22750000000002 864.117576301616 158.22750000000002Q867.0975763016161 158.22750000000002 869.507576301616 156.39750000000004Q876.527576301616 151.01750000000004 877.487576301616 132.7375M876.047576301616 119.65750000000003H877.397576301616Q875.947576301616 106.47750000000002 870.467576301616 106.37750000000005Q869.9875763016161 106.37750000000005 869.507576301616 106.47750000000008Q867.387576301616 107.24750000000006 867.387576301616 109.6475000000001Q867.387576301616 111.7675000000001 868.067576301616 113.78750000000008Q870.177576301616 119.65750000000008 876.047576301616 119.65750000000008 "></path><path fill="#3d9970" d="M899.5175763016159 143.02749999999997Q899.5175763016159 139.7575 899.907576301616 136.10749999999996Q901.927576301616 119.55749999999995 910.2875763016159 106.76749999999998Q920.487576301616 91.17750000000001 934.817576301616 91.17750000000001Q941.077576301616 91.17750000000001 945.787576301616 93.58750000000003Q947.707576301616 91.27750000000003 950.977576301616 91.17750000000001Q957.3275763016161 91.27750000000003 957.517576301616 99.35750000000002Q957.517576301616 99.64750000000004 946.937576301616 175.53750000000002Q968.197576301616 159.66750000000002 973.877576301616 154.95750000000004Q977.437576301616 151.87750000000005 981.277576301616 151.78750000000002Q982.627576301616 151.78750000000002 983.877576301616 152.64750000000004Q986.667576301616 154.56750000000005 986.667576301616 157.55750000000006Q986.5675763016161 162.07750000000004 981.377576301616 166.49750000000006Q971.757576301616 174.57750000000004 943.957576301616 195.83750000000003L939.537576301616 227.6775Q937.897576301616 238.64750000000004 930.207576301616 244.41750000000002Q923.947576301616 248.9375 916.447576301616 248.9375Q907.5975763016161 248.83749999999998 900.767576301616 242.20749999999998Q894.227576301616 235.5675 894.227576301616 227.38749999999993Q894.227576301616 219.30749999999995 897.887576301616 214.01749999999993Q900.187576301616 210.64749999999992 906.8275763016161 205.74749999999995L907.017576301616 205.64749999999992Q907.117576301616 205.55749999999995 907.5975763016161 205.1674999999999Q914.237576301616 200.26749999999993 930.5875763016161 187.94749999999988L933.377576301616 169.28749999999985Q926.937576301616 173.61749999999984 919.907576301616 173.71749999999986Q913.757576301616 173.71749999999986 909.237576301616 170.53749999999985Q899.5175763016159 163.41749999999985 899.5175763016159 143.02749999999986M933.667576301616 149.56749999999988Q935.0175763016159 147.64749999999987 936.937576301616 139.27749999999986Q940.8775763016159 122.24749999999983 942.607576301616 105.03749999999985Q940.397576301616 103.87749999999983 938.087576301616 103.78749999999985Q936.357576301616 103.78749999999985 934.5275763016159 104.26749999999987Q925.587576301616 106.76749999999987 919.337576301616 120.80749999999989Q913.847576301616 133.4074999999999 913.847576301616 146.1074999999999Q913.847576301616 147.45749999999992 913.947576301616 148.7974999999999Q914.617576301616 158.89749999999992 919.907576301616 158.89749999999992Q922.607576301616 158.89749999999992 926.447576301616 156.20749999999992Q930.977576301616 153.0374999999999 933.667576301616 149.56749999999994M925.777576301616 219.97749999999996L927.417576301616 208.24749999999995Q927.027576301616 208.53749999999997 926.547576301616 208.91749999999996Q917.027576301616 216.22749999999996 916.8375763016161 216.42749999999995Q909.907576301616 221.61749999999995 909.8075763016161 226.23749999999995Q909.8075763016161 227.86749999999995 910.387576301616 229.3175Q912.027576301616 233.5475 916.447576301616 233.5475Q918.277576301616 233.5475 919.717576301616 232.96749999999997Q924.427576301616 230.9475 925.777576301616 219.97749999999996 "></path><path fill="#3d9970" d="M993.317576301616 98.19749999999999Q993.317576301616 100.98750000000001 992.3575763016161 110.21749999999997Q989.367576301616 137.53749999999997 989.367576301616 144.17749999999995Q989.367576301616 148.59749999999997 991.197576301616 152.44749999999993Q993.887576301616 158.21749999999992 998.417576301616 158.21749999999992Q999.377576301616 158.21749999999992 1000.437576301616 158.02749999999992Q1003.227576301616 157.3474999999999 1008.5175763016159 153.50749999999994Q1013.707576301616 149.6574999999999 1016.877576301616 149.6574999999999Q1018.227576301616 149.6574999999999 1019.577576301616 150.6174999999999Q1022.2675763016159 152.5374999999999 1022.2675763016159 155.71749999999992Q1021.887576301616 160.6174999999999 1014.667576301616 166.1074999999999Q1005.8175763016159 172.25749999999988 996.107576301616 172.25749999999988Q987.927576301616 172.25749999999988 982.5375763016159 166.58749999999986Q974.457576301616 157.92749999999984 974.457576301616 139.07749999999987Q974.457576301616 132.62749999999988 977.057576301616 113.87749999999988Q978.217576301616 105.1174999999999 978.697576301616 100.9874999999999Q978.7875763016159 100.1174999999999 978.887576301616 99.24749999999989Q980.427576301616 89.63749999999987 986.7775763016159 89.63749999999987Q987.827576301616 89.63749999999987 988.887576301616 89.82749999999987Q993.317576301616 90.88749999999987 993.317576301616 98.19749999999988M982.347576301616 72.9874999999999Q982.347576301616 71.25749999999988 983.1175763016159 69.71749999999992Q985.0475763016159 65.96749999999992 989.3675763016159 65.96749999999992Q991.107576301616 65.96749999999992 992.6375763016159 66.7374999999999Q996.3975763016159 68.6674999999999 996.3975763016159 72.9874999999999Q996.3975763016159 74.7274999999999 995.6275763016159 76.25749999999988Q993.697576301616 80.01749999999987 989.3675763016159 80.01749999999987Q987.6375763016159 80.01749999999987 986.097576301616 79.24749999999989Q982.347576301616 77.31749999999988 982.347576301616 72.9874999999999 "></path><path fill="#3d9970" d="M1019.377576301616 124.5575H1020.337576301616Q1026.207576301616 124.65750000000003 1030.817576301616 124.65750000000003L1036.877576301616 84.15750000000003Q1045.637576301616 25.67750000000001 1072.277576301616 25.577500000000043Q1077.567576301616 25.577500000000043 1081.517576301616 27.21750000000003Q1091.897576301616 31.447500000000048 1091.897576301616 45.20750000000004Q1091.897576301616 50.297500000000014 1090.647576301616 55.877500000000055Q1086.227576301616 75.98750000000007 1067.757576301616 97.72750000000008Q1056.117576301616 111.47750000000008 1046.017576301616 118.0175000000001L1045.0575763016159 124.65750000000008H1054.967576301616Q1057.367576301616 124.65750000000008 1059.2975763016161 125.61750000000006Q1062.847576301616 127.44750000000005 1062.847576301616 131.67750000000007Q1062.847576301616 133.40750000000008 1061.987576301616 135.04750000000007Q1059.7775763016161 138.60750000000007 1054.867576301616 138.60750000000007H1043.037576301616L1038.517576301616 170.34750000000008Q1063.717576301616 151.2075000000001 1065.447576301616 149.66750000000008Q1069.2975763016161 146.5875000000001 1072.857576301616 146.5875000000001Q1074.107576301616 146.5875000000001 1075.457576301616 147.4575000000001Q1078.2375763016162 149.3775000000001 1078.2375763016162 152.35750000000007Q1078.147576301616 156.68750000000006 1072.947576301616 161.30750000000006Q1062.7575763016162 169.76750000000004 1035.727576301616 190.54750000000007L1031.107576301616 222.48750000000007Q1029.667576301616 232.09750000000008 1023.897576301616 237.67750000000012Q1017.4475763016161 243.73750000000007 1008.0275763016161 243.73750000000007Q999.2675763016161 243.73750000000007 992.5375763016161 237.10750000000007Q985.7975763016161 230.4675000000001 985.7975763016161 222.09750000000008Q985.7975763016161 214.0175000000001 989.5575763016161 208.72750000000008Q991.767576301616 205.6475000000001 998.207576301616 200.74750000000006Q998.3075763016161 200.64750000000004 998.887576301616 200.26750000000004Q1005.137576301616 195.5475 1022.167576301616 182.75750000000005L1028.7975763016161 138.60750000000007H1019.377576301616Q1018.5075763016159 138.60750000000007 1017.737576301616 138.50750000000005Q1011.487576301616 137.73750000000007 1011.487576301616 131.67750000000007Q1011.487576301616 130.23750000000007 1011.867576301616 128.98750000000007Q1013.5075763016159 124.55750000000006 1019.377576301616 124.55750000000006M1072.467576301616 40.10750000000007Q1064.297576301616 40.39750000000009 1058.527576301616 53.667500000000075Q1053.517576301616 65.40750000000008 1049.767576301616 92.23750000000007Q1049.197576301616 96.85750000000007 1048.907576301616 98.3975000000001Q1055.3475763016158 92.23750000000007 1062.277576301616 82.61750000000012Q1077.857576301616 61.0775000000001 1077.857576301616 46.16750000000013Q1077.857576301616 45.39750000000015 1077.477576301616 44.33750000000015Q1076.027576301616 40.10750000000013 1072.467576301616 40.10750000000013M1017.357576301616 214.78750000000002L1018.987576301616 203.0575Q1008.987576301616 210.64749999999998 1008.407576301616 211.22750000000002Q1001.477576301616 216.32750000000004 1001.387576301616 221.03750000000002Q1001.387576301616 222.6775 1001.967576301616 224.11750000000006Q1003.597576301616 228.34750000000008 1008.0275763016159 228.34750000000008Q1009.7575763016159 228.34750000000008 1011.2975763016159 227.77750000000003Q1016.0075763016159 225.84750000000008 1017.357576301616 214.78750000000002 "></path><path fill="#3d9970" d="M1123.257576301616 172.7375Q1100.0775763016159 171.77750000000003 1088.917576301616 144.45749999999998Q1080.647576301616 123.8775 1080.647576301616 94.0575Q1080.647576301616 92.51749999999998 1080.837576301616 90.1175Q1082.187576301616 69.8175 1088.337576301616 52.88749999999999Q1098.347576301616 25.567499999999995 1116.627576301616 25.567499999999995Q1117.587576301616 25.567499999999995 1118.647576301616 25.667500000000018Q1135.287576301616 26.72750000000002 1135.287576301616 44.9975Q1135.287576301616 64.90750000000003 1118.157576301616 89.2475Q1107.287576301616 104.73750000000001 1095.367576301616 114.35750000000002Q1098.637576301616 132.6275 1102.5775763016159 141.76750000000004Q1109.887576301616 158.69750000000005 1124.317576301616 158.69750000000005Q1125.277576301616 158.69750000000005 1126.337576301616 158.50750000000005Q1129.507576301616 157.92750000000007 1135.187576301616 153.88750000000005Q1140.667576301616 150.13750000000005 1143.747576301616 150.13750000000005Q1145.0975763016158 150.13750000000005 1146.3475763016158 151.00750000000005Q1149.1375763016158 152.92750000000007 1149.1375763016158 156.19750000000005Q1148.9475763016158 161.19750000000005 1142.017576301616 166.48750000000007Q1133.357576301616 172.73750000000007 1123.257576301616 172.73750000000007M1116.717576301616 40.09750000000008Q1111.047576301616 40.18750000000006 1106.717576301616 44.99750000000006Q1095.747576301616 57.407500000000084 1094.687576301616 96.84750000000008Q1100.467576301616 90.97750000000008 1106.237576301616 82.99750000000006Q1122.197576301616 61.157500000000084 1122.197576301616 46.15750000000003Q1122.197576301616 45.387500000000045 1121.8175763016159 44.32750000000004Q1120.277576301616 40.097500000000025 1116.717576301616 40.097500000000025 "></path><path fill="#3d9970" d="M1158.957576301616 91.94749999999999Q1162.3275763016159 92.04750000000001 1165.3075763016159 92.6275Q1180.1175763016158 95.79750000000001 1183.4875763016157 115.70749999999998Q1185.3175763016159 114.65749999999997 1189.5475763016157 111.76749999999998Q1195.3175763016156 107.82749999999999 1198.2975763016157 107.82749999999999Q1199.7375763016157 107.82749999999999 1201.0875763016156 108.6875Q1204.0675763016156 110.6175 1204.0675763016156 113.88749999999999Q1203.9775763016157 117.15749999999997 1199.8375763016156 121.09749999999997Q1193.9675763016157 126.48749999999995 1184.6375763016158 130.23749999999995Q1184.5475763016157 145.23749999999995 1180.1175763016158 155.62749999999994Q1172.9075763016158 172.55749999999995 1156.4575763016157 172.55749999999995Q1150.5875763016156 172.55749999999995 1144.7175763016157 168.80749999999995Q1131.1575763016158 159.86749999999995 1131.1575763016158 136.58749999999998Q1131.1575763016158 122.53749999999997 1135.8675763016158 110.9975Q1143.2775763016157 92.8175 1158.957576301616 91.94749999999999M1170.977576301616 132.7375Q1167.227576301616 132.6375 1163.8675763016158 131.96750000000003Q1151.1675763016158 129.27750000000003 1147.5075763016157 118.4975Q1145.0075763016157 126.57749999999999 1145.0075763016157 136.10750000000002Q1145.0075763016157 140.71750000000003 1145.8775763016158 145.0475Q1148.5675763016159 158.22750000000002 1157.6075763016158 158.22750000000002Q1160.5875763016159 158.22750000000002 1162.997576301616 156.39750000000004Q1170.017576301616 151.01750000000004 1170.977576301616 132.7375M1169.537576301616 119.65750000000003H1170.8875763016158Q1169.4375763016158 106.47750000000002 1163.957576301616 106.37750000000005Q1163.477576301616 106.37750000000005 1162.997576301616 106.47750000000008Q1160.8775763016158 107.24750000000006 1160.8775763016158 109.6475000000001Q1160.8775763016158 111.7675000000001 1161.5575763016159 113.78750000000008Q1163.6675763016158 119.65750000000008 1169.537576301616 119.65750000000008 "></path><path fill="#3d9970" d="M1251.6775763016158 173.2375Q1240.707576301616 173.1375 1233.497576301616 165.9275Q1225.417576301616 173.1375 1213.107576301616 173.2375Q1209.6375763016158 173.2375 1206.5575763016159 172.3675Q1189.727576301616 167.26749999999998 1189.727576301616 135.33749999999998Q1189.727576301616 119.94749999999999 1193.0975763016158 104.35749999999996Q1195.8875763016158 92.23749999999995 1202.6175763016158 92.14749999999998Q1208.777576301616 92.23749999999995 1208.967576301616 99.64749999999998Q1208.967576301616 101.1875 1208.0975763016158 106.3775Q1204.737576301616 128.40750000000003 1204.737576301616 138.1275Q1204.737576301616 158.03750000000002 1215.4075763016158 158.22750000000002Q1223.297576301616 157.64750000000004 1227.8175763016159 149.3775L1227.6275763016158 146.2975Q1227.6275763016158 141.2975 1228.6875763016158 134.46750000000003Q1231.767576301616 114.5575 1240.2275763016157 114.5575Q1247.3475763016158 114.65750000000003 1247.4475763016158 127.63749999999999Q1247.4475763016158 140.52749999999997 1243.2075763016157 151.4975Q1244.9375763016158 158.1275 1252.3475763016158 158.22750000000002Q1259.0775763016159 158.22750000000002 1265.4275763016158 153.3175Q1274.9575763016157 145.8175 1281.1075763016156 130.0475Q1276.8775763016156 129.3675 1273.3175763016156 127.63749999999999Q1262.4475763016158 122.15749999999997 1262.4475763016158 109.16750000000002Q1262.4475763016158 102.8175 1267.0675763016156 98.10750000000002Q1272.2575763016157 92.8175 1279.2775763016157 92.8175Q1285.537576301616 92.8175 1290.537576301616 96.27749999999997Q1297.6575763016158 101.3775 1297.9475763016158 110.32749999999999L1297.7475763016157 115.22749999999996Q1299.3875763016158 114.45749999999998 1301.8875763016158 112.91749999999996Q1305.6375763016158 110.61749999999995 1308.0475763016157 110.61749999999995Q1309.3875763016158 110.61749999999995 1310.7375763016157 111.37749999999994Q1314.0075763016157 113.20749999999992 1314.0075763016157 116.86749999999995Q1314.0075763016157 119.07749999999993 1312.3675763016158 121.09749999999997Q1307.9475763016158 126.57749999999999 1295.1575763016158 129.27749999999997Q1291.1175763016158 143.02749999999997 1283.4175763016156 153.99749999999995Q1269.8575763016156 173.23749999999995 1251.6775763016158 173.23749999999995M1280.6275763016158 106.1875Q1279.6675763016158 106.1875 1278.6075763016158 106.57749999999999Q1275.5275763016157 107.72749999999996 1275.5275763016157 110.8075Q1275.5275763016157 111.1875 1275.6275763016158 111.57749999999999Q1276.2975763016157 116.57749999999999 1284.6675763016158 117.15749999999997Q1285.1475763016158 114.93749999999994 1285.1475763016158 112.53749999999997Q1285.0575763016159 106.76749999999998 1280.6275763016158 106.18749999999994 "></path></g><rect width="577" height="249" x="711.5" y="0" id="space-saver" fill="transparent" stroke="transparent"></rect></g></svg>